<mxfile host="Electron" modified="2024-09-29T19:10:30.177Z" agent="Mozilla/5.0 (Windows NT 10.0; Win64; x64) AppleWebKit/537.36 (KHTML, like Gecko) draw.io/22.1.16 Chrome/120.0.6099.109 Electron/28.1.0 Safari/537.36" etag="3-e_qqMuggOpAMHxC-xF" version="22.1.16" type="device">
  <diagram name="Page-1" id="H83_4xWVc6kx4KiNgCbZ">
    <mxGraphModel dx="3483" dy="725" grid="1" gridSize="10" guides="1" tooltips="1" connect="1" arrows="1" fold="1" page="1" pageScale="1" pageWidth="700" pageHeight="270" math="0" shadow="0">
      <root>
        <mxCell id="0" />
        <mxCell id="1" parent="0" />
        <mxCell id="77RlWujfG2KdfoTUNOT7-2" value="" style="endArrow=none;html=1;rounded=0;" edge="1" parent="1">
          <mxGeometry width="50" height="50" relative="1" as="geometry">
            <mxPoint x="-2680" y="-150" as="sourcePoint" />
            <mxPoint x="-2680" y="-150" as="targetPoint" />
            <Array as="points">
              <mxPoint x="-2650" y="-70" />
              <mxPoint x="-2630" y="-70" />
              <mxPoint x="-2610" y="-70" />
              <mxPoint x="-2580" y="-150" />
              <mxPoint x="-2620" y="-150" />
              <mxPoint x="-2630" y="-125.07692307692307" />
              <mxPoint x="-2640" y="-150" />
            </Array>
          </mxGeometry>
        </mxCell>
        <mxCell id="77RlWujfG2KdfoTUNOT7-3" value="ALU" style="text;strokeColor=none;align=center;fillColor=none;html=1;verticalAlign=middle;whiteSpace=wrap;rounded=0;fontSize=10;" vertex="1" parent="1">
          <mxGeometry x="-2680" y="-145.42307692307693" width="100" height="62.30769230769231" as="geometry" />
        </mxCell>
        <mxCell id="77RlWujfG2KdfoTUNOT7-15" style="edgeStyle=orthogonalEdgeStyle;rounded=0;orthogonalLoop=1;jettySize=auto;html=1;exitX=0.5;exitY=1;exitDx=0;exitDy=0;" edge="1" parent="1" source="77RlWujfG2KdfoTUNOT7-5">
          <mxGeometry relative="1" as="geometry">
            <mxPoint x="-2660" y="-150" as="targetPoint" />
          </mxGeometry>
        </mxCell>
        <mxCell id="77RlWujfG2KdfoTUNOT7-35" style="edgeStyle=orthogonalEdgeStyle;rounded=0;orthogonalLoop=1;jettySize=auto;html=1;exitX=0.5;exitY=0;exitDx=0;exitDy=0;" edge="1" parent="1" source="77RlWujfG2KdfoTUNOT7-5" target="77RlWujfG2KdfoTUNOT7-13">
          <mxGeometry relative="1" as="geometry">
            <Array as="points">
              <mxPoint x="-2660" y="-240" />
              <mxPoint x="-2720" y="-240" />
            </Array>
          </mxGeometry>
        </mxCell>
        <mxCell id="77RlWujfG2KdfoTUNOT7-5" value="A" style="rounded=0;whiteSpace=wrap;html=1;" vertex="1" parent="1">
          <mxGeometry x="-2680" y="-190" width="40" height="20" as="geometry" />
        </mxCell>
        <mxCell id="77RlWujfG2KdfoTUNOT7-16" style="edgeStyle=orthogonalEdgeStyle;rounded=0;orthogonalLoop=1;jettySize=auto;html=1;exitX=0.5;exitY=1;exitDx=0;exitDy=0;" edge="1" parent="1" source="77RlWujfG2KdfoTUNOT7-6">
          <mxGeometry relative="1" as="geometry">
            <mxPoint x="-2600" y="-150" as="targetPoint" />
          </mxGeometry>
        </mxCell>
        <mxCell id="77RlWujfG2KdfoTUNOT7-6" value="B" style="rounded=0;whiteSpace=wrap;html=1;" vertex="1" parent="1">
          <mxGeometry x="-2620" y="-190" width="40" height="20" as="geometry" />
        </mxCell>
        <mxCell id="77RlWujfG2KdfoTUNOT7-32" style="edgeStyle=orthogonalEdgeStyle;rounded=0;orthogonalLoop=1;jettySize=auto;html=1;exitX=0.5;exitY=1;exitDx=0;exitDy=0;entryX=1;entryY=0.5;entryDx=0;entryDy=0;" edge="1" parent="1" source="77RlWujfG2KdfoTUNOT7-7" target="77RlWujfG2KdfoTUNOT7-26">
          <mxGeometry relative="1" as="geometry">
            <Array as="points">
              <mxPoint x="-2630" y="-10" />
              <mxPoint x="-2150" y="-10" />
              <mxPoint x="-2150" y="-125" />
            </Array>
          </mxGeometry>
        </mxCell>
        <mxCell id="77RlWujfG2KdfoTUNOT7-33" style="edgeStyle=orthogonalEdgeStyle;rounded=0;orthogonalLoop=1;jettySize=auto;html=1;exitX=0.5;exitY=1;exitDx=0;exitDy=0;entryX=0.5;entryY=0;entryDx=0;entryDy=0;" edge="1" parent="1" source="77RlWujfG2KdfoTUNOT7-7" target="77RlWujfG2KdfoTUNOT7-25">
          <mxGeometry relative="1" as="geometry">
            <Array as="points">
              <mxPoint x="-2630" y="-10" />
              <mxPoint x="-2150" y="-10" />
              <mxPoint x="-2150" y="-240" />
              <mxPoint x="-2359" y="-240" />
            </Array>
          </mxGeometry>
        </mxCell>
        <mxCell id="77RlWujfG2KdfoTUNOT7-34" style="edgeStyle=orthogonalEdgeStyle;rounded=0;orthogonalLoop=1;jettySize=auto;html=1;exitX=0.5;exitY=1;exitDx=0;exitDy=0;entryX=0.5;entryY=1;entryDx=0;entryDy=0;" edge="1" parent="1" source="77RlWujfG2KdfoTUNOT7-7" target="77RlWujfG2KdfoTUNOT7-23">
          <mxGeometry relative="1" as="geometry" />
        </mxCell>
        <mxCell id="77RlWujfG2KdfoTUNOT7-7" value="C" style="rounded=0;whiteSpace=wrap;html=1;" vertex="1" parent="1">
          <mxGeometry x="-2650" y="-50" width="40" height="20" as="geometry" />
        </mxCell>
        <mxCell id="77RlWujfG2KdfoTUNOT7-43" style="edgeStyle=orthogonalEdgeStyle;rounded=0;orthogonalLoop=1;jettySize=auto;html=1;exitX=0;exitY=0.5;exitDx=0;exitDy=0;endArrow=none;endFill=0;" edge="1" parent="1" source="77RlWujfG2KdfoTUNOT7-8">
          <mxGeometry relative="1" as="geometry">
            <mxPoint x="-2560" y="-136.42857142857144" as="targetPoint" />
          </mxGeometry>
        </mxCell>
        <mxCell id="77RlWujfG2KdfoTUNOT7-8" value="R3" style="rounded=0;whiteSpace=wrap;html=1;" vertex="1" parent="1">
          <mxGeometry x="-2540" y="-146.42000000000002" width="40" height="20" as="geometry" />
        </mxCell>
        <mxCell id="77RlWujfG2KdfoTUNOT7-42" style="edgeStyle=orthogonalEdgeStyle;rounded=0;orthogonalLoop=1;jettySize=auto;html=1;exitX=0;exitY=0.5;exitDx=0;exitDy=0;endArrow=none;endFill=0;" edge="1" parent="1" source="77RlWujfG2KdfoTUNOT7-9">
          <mxGeometry relative="1" as="geometry">
            <mxPoint x="-2560" y="-112.14285714285722" as="targetPoint" />
          </mxGeometry>
        </mxCell>
        <mxCell id="77RlWujfG2KdfoTUNOT7-9" value="R4" style="rounded=0;whiteSpace=wrap;html=1;" vertex="1" parent="1">
          <mxGeometry x="-2540" y="-122.27000000000001" width="40" height="20" as="geometry" />
        </mxCell>
        <mxCell id="77RlWujfG2KdfoTUNOT7-41" style="edgeStyle=orthogonalEdgeStyle;rounded=0;orthogonalLoop=1;jettySize=auto;html=1;exitX=0;exitY=0.5;exitDx=0;exitDy=0;endArrow=none;endFill=0;" edge="1" parent="1" source="77RlWujfG2KdfoTUNOT7-10">
          <mxGeometry relative="1" as="geometry">
            <mxPoint x="-2560" y="-87.85714285714289" as="targetPoint" />
          </mxGeometry>
        </mxCell>
        <mxCell id="77RlWujfG2KdfoTUNOT7-10" value="R5" style="rounded=0;whiteSpace=wrap;html=1;" vertex="1" parent="1">
          <mxGeometry x="-2540" y="-98" width="40" height="20" as="geometry" />
        </mxCell>
        <mxCell id="77RlWujfG2KdfoTUNOT7-40" style="edgeStyle=orthogonalEdgeStyle;rounded=0;orthogonalLoop=1;jettySize=auto;html=1;exitX=0;exitY=0.5;exitDx=0;exitDy=0;endArrow=none;endFill=0;" edge="1" parent="1" source="77RlWujfG2KdfoTUNOT7-11">
          <mxGeometry relative="1" as="geometry">
            <mxPoint x="-2560" y="-64.04761904761904" as="targetPoint" />
          </mxGeometry>
        </mxCell>
        <mxCell id="77RlWujfG2KdfoTUNOT7-11" value="R6" style="rounded=0;whiteSpace=wrap;html=1;" vertex="1" parent="1">
          <mxGeometry x="-2540" y="-74" width="40" height="20" as="geometry" />
        </mxCell>
        <mxCell id="77RlWujfG2KdfoTUNOT7-39" style="edgeStyle=orthogonalEdgeStyle;rounded=0;orthogonalLoop=1;jettySize=auto;html=1;exitX=0;exitY=0.5;exitDx=0;exitDy=0;entryX=0.5;entryY=0;entryDx=0;entryDy=0;" edge="1" parent="1" source="77RlWujfG2KdfoTUNOT7-12" target="77RlWujfG2KdfoTUNOT7-6">
          <mxGeometry relative="1" as="geometry">
            <Array as="points">
              <mxPoint x="-2560" y="-40" />
              <mxPoint x="-2560" y="-240" />
              <mxPoint x="-2600" y="-240" />
            </Array>
          </mxGeometry>
        </mxCell>
        <mxCell id="77RlWujfG2KdfoTUNOT7-12" value="R7" style="rounded=0;whiteSpace=wrap;html=1;" vertex="1" parent="1">
          <mxGeometry x="-2540" y="-50" width="40" height="20" as="geometry" />
        </mxCell>
        <mxCell id="77RlWujfG2KdfoTUNOT7-13" value="OP" style="rounded=0;whiteSpace=wrap;html=1;" vertex="1" parent="1">
          <mxGeometry x="-2740" y="-130" width="40" height="20" as="geometry" />
        </mxCell>
        <mxCell id="77RlWujfG2KdfoTUNOT7-14" value="" style="endArrow=classic;html=1;rounded=0;exitX=1;exitY=0.5;exitDx=0;exitDy=0;" edge="1" parent="1" source="77RlWujfG2KdfoTUNOT7-13">
          <mxGeometry width="50" height="50" relative="1" as="geometry">
            <mxPoint x="-2720" y="-110" as="sourcePoint" />
            <mxPoint x="-2669" y="-120" as="targetPoint" />
          </mxGeometry>
        </mxCell>
        <mxCell id="77RlWujfG2KdfoTUNOT7-18" style="edgeStyle=orthogonalEdgeStyle;rounded=0;orthogonalLoop=1;jettySize=auto;html=1;exitX=1;exitY=0.5;exitDx=0;exitDy=0;endArrow=none;endFill=0;startArrow=classic;startFill=1;" edge="1" parent="1" source="77RlWujfG2KdfoTUNOT7-17">
          <mxGeometry relative="1" as="geometry">
            <mxPoint x="-2658" y="-90" as="targetPoint" />
          </mxGeometry>
        </mxCell>
        <mxCell id="77RlWujfG2KdfoTUNOT7-36" style="edgeStyle=orthogonalEdgeStyle;rounded=0;orthogonalLoop=1;jettySize=auto;html=1;exitX=0.5;exitY=1;exitDx=0;exitDy=0;entryX=0.5;entryY=1;entryDx=0;entryDy=0;" edge="1" parent="1" source="77RlWujfG2KdfoTUNOT7-17" target="77RlWujfG2KdfoTUNOT7-23">
          <mxGeometry relative="1" as="geometry">
            <Array as="points">
              <mxPoint x="-2720" y="-10" />
              <mxPoint x="-2470" y="-10" />
            </Array>
          </mxGeometry>
        </mxCell>
        <mxCell id="77RlWujfG2KdfoTUNOT7-17" value="ST" style="rounded=0;whiteSpace=wrap;html=1;" vertex="1" parent="1">
          <mxGeometry x="-2740" y="-100" width="40" height="20" as="geometry" />
        </mxCell>
        <mxCell id="77RlWujfG2KdfoTUNOT7-19" value="" style="endArrow=classic;html=1;rounded=0;entryX=0.5;entryY=0;entryDx=0;entryDy=0;" edge="1" parent="1" target="77RlWujfG2KdfoTUNOT7-7">
          <mxGeometry width="50" height="50" relative="1" as="geometry">
            <mxPoint x="-2630" y="-70" as="sourcePoint" />
            <mxPoint x="-2590" y="-110" as="targetPoint" />
          </mxGeometry>
        </mxCell>
        <mxCell id="77RlWujfG2KdfoTUNOT7-44" style="edgeStyle=orthogonalEdgeStyle;rounded=0;orthogonalLoop=1;jettySize=auto;html=1;exitX=0;exitY=0.5;exitDx=0;exitDy=0;endArrow=none;endFill=0;" edge="1" parent="1" source="77RlWujfG2KdfoTUNOT7-20">
          <mxGeometry relative="1" as="geometry">
            <mxPoint x="-2560" y="-161.19047619047626" as="targetPoint" />
          </mxGeometry>
        </mxCell>
        <mxCell id="77RlWujfG2KdfoTUNOT7-20" value="R2" style="rounded=0;whiteSpace=wrap;html=1;" vertex="1" parent="1">
          <mxGeometry x="-2540" y="-171" width="40" height="20" as="geometry" />
        </mxCell>
        <mxCell id="77RlWujfG2KdfoTUNOT7-45" style="edgeStyle=orthogonalEdgeStyle;rounded=0;orthogonalLoop=1;jettySize=auto;html=1;exitX=0;exitY=0.5;exitDx=0;exitDy=0;endArrow=none;endFill=0;" edge="1" parent="1" source="77RlWujfG2KdfoTUNOT7-21">
          <mxGeometry relative="1" as="geometry">
            <mxPoint x="-2560" y="-185" as="targetPoint" />
          </mxGeometry>
        </mxCell>
        <mxCell id="77RlWujfG2KdfoTUNOT7-21" value="R1" style="rounded=0;whiteSpace=wrap;html=1;" vertex="1" parent="1">
          <mxGeometry x="-2540" y="-195" width="40" height="20" as="geometry" />
        </mxCell>
        <mxCell id="77RlWujfG2KdfoTUNOT7-46" style="edgeStyle=orthogonalEdgeStyle;rounded=0;orthogonalLoop=1;jettySize=auto;html=1;exitX=0;exitY=0.5;exitDx=0;exitDy=0;endArrow=none;endFill=0;" edge="1" parent="1" source="77RlWujfG2KdfoTUNOT7-22">
          <mxGeometry relative="1" as="geometry">
            <mxPoint x="-2560" y="-208.80952380952385" as="targetPoint" />
          </mxGeometry>
        </mxCell>
        <mxCell id="77RlWujfG2KdfoTUNOT7-22" value="R0" style="rounded=0;whiteSpace=wrap;html=1;" vertex="1" parent="1">
          <mxGeometry x="-2540" y="-219" width="40" height="20" as="geometry" />
        </mxCell>
        <mxCell id="77RlWujfG2KdfoTUNOT7-50" style="edgeStyle=orthogonalEdgeStyle;rounded=0;orthogonalLoop=1;jettySize=auto;html=1;exitX=0.5;exitY=1;exitDx=0;exitDy=0;entryX=0.5;entryY=0;entryDx=0;entryDy=0;startArrow=classic;startFill=1;" edge="1" parent="1" source="77RlWujfG2KdfoTUNOT7-66" target="77RlWujfG2KdfoTUNOT7-49">
          <mxGeometry relative="1" as="geometry">
            <mxPoint x="-2400" y="-150" as="targetPoint" />
            <Array as="points">
              <mxPoint x="-2430" y="-10" />
              <mxPoint x="-2150" y="-10" />
              <mxPoint x="-2150" y="-240" />
              <mxPoint x="-2399" y="-240" />
            </Array>
          </mxGeometry>
        </mxCell>
        <mxCell id="77RlWujfG2KdfoTUNOT7-120" style="edgeStyle=orthogonalEdgeStyle;rounded=0;orthogonalLoop=1;jettySize=auto;html=1;exitX=0.5;exitY=0;exitDx=0;exitDy=0;entryX=0.25;entryY=1;entryDx=0;entryDy=0;endArrow=none;endFill=0;" edge="1" parent="1" source="77RlWujfG2KdfoTUNOT7-23" target="77RlWujfG2KdfoTUNOT7-67">
          <mxGeometry relative="1" as="geometry" />
        </mxCell>
        <mxCell id="77RlWujfG2KdfoTUNOT7-23" value="PCH" style="rounded=0;whiteSpace=wrap;html=1;" vertex="1" parent="1">
          <mxGeometry x="-2490" y="-59" width="40" height="20" as="geometry" />
        </mxCell>
        <mxCell id="77RlWujfG2KdfoTUNOT7-29" style="edgeStyle=orthogonalEdgeStyle;rounded=0;orthogonalLoop=1;jettySize=auto;html=1;exitX=1;exitY=0.5;exitDx=0;exitDy=0;entryX=0;entryY=0.5;entryDx=0;entryDy=0;startArrow=classic;startFill=1;" edge="1" parent="1" source="77RlWujfG2KdfoTUNOT7-24" target="77RlWujfG2KdfoTUNOT7-26">
          <mxGeometry relative="1" as="geometry" />
        </mxCell>
        <mxCell id="77RlWujfG2KdfoTUNOT7-24" value="MEMORY" style="rounded=0;whiteSpace=wrap;html=1;verticalAlign=top;spacingTop=12;" vertex="1" parent="1">
          <mxGeometry x="-2319" y="-220" width="80" height="190" as="geometry" />
        </mxCell>
        <mxCell id="77RlWujfG2KdfoTUNOT7-25" value="ADDL" style="rounded=0;whiteSpace=wrap;html=1;" vertex="1" parent="1">
          <mxGeometry x="-2379" y="-204" width="40" height="20" as="geometry" />
        </mxCell>
        <mxCell id="77RlWujfG2KdfoTUNOT7-65" style="edgeStyle=orthogonalEdgeStyle;rounded=0;orthogonalLoop=1;jettySize=auto;html=1;exitX=1;exitY=0.5;exitDx=0;exitDy=0;entryX=0.5;entryY=0;entryDx=0;entryDy=0;endArrow=classic;endFill=1;startArrow=diamondThin;startFill=1;" edge="1" parent="1" source="77RlWujfG2KdfoTUNOT7-26" target="77RlWujfG2KdfoTUNOT7-5">
          <mxGeometry relative="1" as="geometry">
            <Array as="points">
              <mxPoint x="-2150" y="-125" />
              <mxPoint x="-2150" y="-240" />
              <mxPoint x="-2660" y="-240" />
            </Array>
          </mxGeometry>
        </mxCell>
        <mxCell id="77RlWujfG2KdfoTUNOT7-26" value="DATA" style="rounded=0;whiteSpace=wrap;html=1;" vertex="1" parent="1">
          <mxGeometry x="-2211" y="-135" width="40" height="20" as="geometry" />
        </mxCell>
        <mxCell id="77RlWujfG2KdfoTUNOT7-30" style="edgeStyle=orthogonalEdgeStyle;rounded=0;orthogonalLoop=1;jettySize=auto;html=1;exitX=1;exitY=0.5;exitDx=0;exitDy=0;entryX=0;entryY=0.054;entryDx=0;entryDy=0;entryPerimeter=0;" edge="1" parent="1" source="77RlWujfG2KdfoTUNOT7-25">
          <mxGeometry relative="1" as="geometry">
            <mxPoint x="-2319" y="-193.74" as="targetPoint" />
          </mxGeometry>
        </mxCell>
        <mxCell id="77RlWujfG2KdfoTUNOT7-47" value="" style="endArrow=none;html=1;rounded=0;" edge="1" parent="1">
          <mxGeometry width="50" height="50" relative="1" as="geometry">
            <mxPoint x="-2460" y="-230" as="sourcePoint" />
            <mxPoint x="-2450" y="-249" as="targetPoint" />
          </mxGeometry>
        </mxCell>
        <mxCell id="77RlWujfG2KdfoTUNOT7-48" value="2&lt;sup&gt;N&lt;/sup&gt;" style="text;strokeColor=none;align=center;fillColor=none;html=1;verticalAlign=middle;whiteSpace=wrap;rounded=0;fontSize=9;" vertex="1" parent="1">
          <mxGeometry x="-2450" y="-260" width="30" height="20" as="geometry" />
        </mxCell>
        <mxCell id="77RlWujfG2KdfoTUNOT7-49" value="ADDH" style="rounded=0;whiteSpace=wrap;html=1;" vertex="1" parent="1">
          <mxGeometry x="-2419" y="-204" width="40" height="20" as="geometry" />
        </mxCell>
        <mxCell id="77RlWujfG2KdfoTUNOT7-51" value="OUTPUT" style="rounded=0;whiteSpace=wrap;html=1;" vertex="1" parent="1">
          <mxGeometry x="-2319" y="-50" width="80" height="20" as="geometry" />
        </mxCell>
        <mxCell id="77RlWujfG2KdfoTUNOT7-52" value="INPUT" style="rounded=0;whiteSpace=wrap;html=1;" vertex="1" parent="1">
          <mxGeometry x="-2319" y="-70" width="80" height="20" as="geometry" />
        </mxCell>
        <mxCell id="77RlWujfG2KdfoTUNOT7-59" value="WR" style="text;strokeColor=none;align=left;fillColor=none;html=1;verticalAlign=middle;whiteSpace=wrap;rounded=0;fontSize=9;" vertex="1" parent="1">
          <mxGeometry x="-2211" y="-180" width="38" height="20" as="geometry" />
        </mxCell>
        <mxCell id="77RlWujfG2KdfoTUNOT7-61" style="edgeStyle=orthogonalEdgeStyle;rounded=0;orthogonalLoop=1;jettySize=auto;html=1;exitX=0;exitY=0.5;exitDx=0;exitDy=0;entryX=1.01;entryY=0.265;entryDx=0;entryDy=0;entryPerimeter=0;dashed=1;dashPattern=1 1;" edge="1" parent="1" source="77RlWujfG2KdfoTUNOT7-59" target="77RlWujfG2KdfoTUNOT7-24">
          <mxGeometry relative="1" as="geometry" />
        </mxCell>
        <mxCell id="77RlWujfG2KdfoTUNOT7-62" value="RD" style="text;strokeColor=none;align=left;fillColor=none;html=1;verticalAlign=middle;whiteSpace=wrap;rounded=0;fontSize=9;" vertex="1" parent="1">
          <mxGeometry x="-2210" y="-160" width="38" height="20" as="geometry" />
        </mxCell>
        <mxCell id="77RlWujfG2KdfoTUNOT7-63" style="edgeStyle=orthogonalEdgeStyle;rounded=0;orthogonalLoop=1;jettySize=auto;html=1;exitX=0;exitY=0.5;exitDx=0;exitDy=0;entryX=1.005;entryY=0.366;entryDx=0;entryDy=0;entryPerimeter=0;dashed=1;dashPattern=1 1;" edge="1" parent="1" source="77RlWujfG2KdfoTUNOT7-62" target="77RlWujfG2KdfoTUNOT7-24">
          <mxGeometry relative="1" as="geometry" />
        </mxCell>
        <mxCell id="77RlWujfG2KdfoTUNOT7-119" style="edgeStyle=orthogonalEdgeStyle;rounded=0;orthogonalLoop=1;jettySize=auto;html=1;exitX=0.5;exitY=0;exitDx=0;exitDy=0;entryX=0.75;entryY=1;entryDx=0;entryDy=0;endArrow=none;endFill=0;" edge="1" parent="1" source="77RlWujfG2KdfoTUNOT7-66" target="77RlWujfG2KdfoTUNOT7-67">
          <mxGeometry relative="1" as="geometry" />
        </mxCell>
        <mxCell id="77RlWujfG2KdfoTUNOT7-66" value="PCL" style="rounded=0;whiteSpace=wrap;html=1;" vertex="1" parent="1">
          <mxGeometry x="-2450" y="-59" width="40" height="20" as="geometry" />
        </mxCell>
        <mxCell id="77RlWujfG2KdfoTUNOT7-67" value="LOGIC" style="rounded=0;whiteSpace=wrap;html=1;" vertex="1" parent="1">
          <mxGeometry x="-2490" y="-174" width="80" height="109" as="geometry" />
        </mxCell>
        <mxCell id="77RlWujfG2KdfoTUNOT7-68" value="CLK" style="text;strokeColor=none;align=center;fillColor=none;html=1;verticalAlign=middle;whiteSpace=wrap;rounded=0;fontSize=9;" vertex="1" parent="1">
          <mxGeometry x="-2490" y="-220" width="38" height="20" as="geometry" />
        </mxCell>
        <mxCell id="77RlWujfG2KdfoTUNOT7-69" style="edgeStyle=orthogonalEdgeStyle;rounded=0;orthogonalLoop=1;jettySize=auto;html=1;entryX=1.01;entryY=0.265;entryDx=0;entryDy=0;entryPerimeter=0;dashed=1;dashPattern=1 1;" edge="1" parent="1">
          <mxGeometry relative="1" as="geometry">
            <mxPoint x="-2470.08" y="-174" as="targetPoint" />
            <mxPoint x="-2470.08" y="-204" as="sourcePoint" />
          </mxGeometry>
        </mxCell>
        <mxCell id="77RlWujfG2KdfoTUNOT7-70" value="" style="endArrow=none;html=1;rounded=0;dashed=1;" edge="1" parent="1">
          <mxGeometry width="50" height="50" relative="1" as="geometry">
            <mxPoint x="-2590" y="-210" as="sourcePoint" />
            <mxPoint x="-2610" y="-210" as="targetPoint" />
          </mxGeometry>
        </mxCell>
        <mxCell id="77RlWujfG2KdfoTUNOT7-71" value="" style="endArrow=none;html=1;rounded=0;dashed=1;" edge="1" parent="1">
          <mxGeometry width="50" height="50" relative="1" as="geometry">
            <mxPoint x="-2650" y="-210.14" as="sourcePoint" />
            <mxPoint x="-2670" y="-210.14" as="targetPoint" />
          </mxGeometry>
        </mxCell>
        <mxCell id="77RlWujfG2KdfoTUNOT7-72" value="" style="endArrow=none;html=1;rounded=0;dashed=1;" edge="1" parent="1">
          <mxGeometry width="50" height="50" relative="1" as="geometry">
            <mxPoint x="-2710" y="-160" as="sourcePoint" />
            <mxPoint x="-2730" y="-160" as="targetPoint" />
          </mxGeometry>
        </mxCell>
        <mxCell id="77RlWujfG2KdfoTUNOT7-73" value="LAA" style="text;strokeColor=none;align=center;fillColor=none;html=1;verticalAlign=middle;whiteSpace=wrap;rounded=0;fontSize=9;" vertex="1" parent="1">
          <mxGeometry x="-2700" y="-220" width="30" height="20" as="geometry" />
        </mxCell>
        <mxCell id="77RlWujfG2KdfoTUNOT7-74" value="LAB" style="text;strokeColor=none;align=center;fillColor=none;html=1;verticalAlign=middle;whiteSpace=wrap;rounded=0;fontSize=9;" vertex="1" parent="1">
          <mxGeometry x="-2640" y="-220" width="30" height="20" as="geometry" />
        </mxCell>
        <mxCell id="77RlWujfG2KdfoTUNOT7-75" value="LAOP" style="text;strokeColor=none;align=center;fillColor=none;html=1;verticalAlign=middle;whiteSpace=wrap;rounded=0;fontSize=9;" vertex="1" parent="1">
          <mxGeometry x="-2760" y="-170" width="30" height="20" as="geometry" />
        </mxCell>
        <mxCell id="77RlWujfG2KdfoTUNOT7-76" value="" style="endArrow=none;html=1;rounded=0;dashed=1;" edge="1" parent="1">
          <mxGeometry width="50" height="50" relative="1" as="geometry">
            <mxPoint x="-2710" y="-70" as="sourcePoint" />
            <mxPoint x="-2730" y="-70" as="targetPoint" />
          </mxGeometry>
        </mxCell>
        <mxCell id="77RlWujfG2KdfoTUNOT7-77" value="LAST" style="text;strokeColor=none;align=center;fillColor=none;html=1;verticalAlign=middle;whiteSpace=wrap;rounded=0;fontSize=9;" vertex="1" parent="1">
          <mxGeometry x="-2760" y="-80" width="30" height="20" as="geometry" />
        </mxCell>
        <mxCell id="77RlWujfG2KdfoTUNOT7-78" value="LAC" style="text;strokeColor=none;align=center;fillColor=none;html=1;verticalAlign=middle;whiteSpace=wrap;rounded=0;fontSize=9;" vertex="1" parent="1">
          <mxGeometry x="-2670" y="-30" width="30" height="20" as="geometry" />
        </mxCell>
        <mxCell id="77RlWujfG2KdfoTUNOT7-79" value="" style="endArrow=none;html=1;rounded=0;dashed=1;" edge="1" parent="1">
          <mxGeometry width="50" height="50" relative="1" as="geometry">
            <mxPoint x="-2620" y="-20.14" as="sourcePoint" />
            <mxPoint x="-2640" y="-20.14" as="targetPoint" />
          </mxGeometry>
        </mxCell>
        <mxCell id="77RlWujfG2KdfoTUNOT7-80" value="" style="endArrow=none;html=1;rounded=0;dashed=1;" edge="1" parent="1">
          <mxGeometry width="50" height="50" relative="1" as="geometry">
            <mxPoint x="-2460" y="-24" as="sourcePoint" />
            <mxPoint x="-2480" y="-24" as="targetPoint" />
          </mxGeometry>
        </mxCell>
        <mxCell id="77RlWujfG2KdfoTUNOT7-81" value="" style="endArrow=none;html=1;rounded=0;dashed=1;" edge="1" parent="1">
          <mxGeometry width="50" height="50" relative="1" as="geometry">
            <mxPoint x="-2420" y="-24.28" as="sourcePoint" />
            <mxPoint x="-2440" y="-24.28" as="targetPoint" />
          </mxGeometry>
        </mxCell>
        <mxCell id="77RlWujfG2KdfoTUNOT7-82" value="LAPH" style="text;strokeColor=none;align=center;fillColor=none;html=1;verticalAlign=middle;whiteSpace=wrap;rounded=0;fontSize=9;" vertex="1" parent="1">
          <mxGeometry x="-2504" y="-25" width="30" height="20" as="geometry" />
        </mxCell>
        <mxCell id="77RlWujfG2KdfoTUNOT7-83" value="LAPL" style="text;strokeColor=none;align=center;fillColor=none;html=1;verticalAlign=middle;whiteSpace=wrap;rounded=0;fontSize=9;" vertex="1" parent="1">
          <mxGeometry x="-2465" y="-25" width="30" height="20" as="geometry" />
        </mxCell>
        <mxCell id="77RlWujfG2KdfoTUNOT7-84" value="" style="endArrow=none;html=1;rounded=0;dashed=1;" edge="1" parent="1">
          <mxGeometry width="50" height="50" relative="1" as="geometry">
            <mxPoint x="-2389" y="-221.28" as="sourcePoint" />
            <mxPoint x="-2409" y="-221.28" as="targetPoint" />
          </mxGeometry>
        </mxCell>
        <mxCell id="77RlWujfG2KdfoTUNOT7-85" value="" style="endArrow=none;html=1;rounded=0;dashed=1;" edge="1" parent="1">
          <mxGeometry width="50" height="50" relative="1" as="geometry">
            <mxPoint x="-2349" y="-221" as="sourcePoint" />
            <mxPoint x="-2369" y="-221" as="targetPoint" />
          </mxGeometry>
        </mxCell>
        <mxCell id="77RlWujfG2KdfoTUNOT7-86" value="LAAH" style="text;strokeColor=none;align=center;fillColor=none;html=1;verticalAlign=middle;whiteSpace=wrap;rounded=0;fontSize=9;" vertex="1" parent="1">
          <mxGeometry x="-2395" y="-239" width="30" height="20" as="geometry" />
        </mxCell>
        <mxCell id="77RlWujfG2KdfoTUNOT7-87" value="LAAL" style="text;strokeColor=none;align=center;fillColor=none;html=1;verticalAlign=middle;whiteSpace=wrap;rounded=0;fontSize=9;" vertex="1" parent="1">
          <mxGeometry x="-2357" y="-239" width="30" height="20" as="geometry" />
        </mxCell>
        <mxCell id="77RlWujfG2KdfoTUNOT7-88" style="edgeStyle=orthogonalEdgeStyle;rounded=0;orthogonalLoop=1;jettySize=auto;html=1;dashed=1;dashPattern=1 1;" edge="1" parent="1">
          <mxGeometry relative="1" as="geometry">
            <mxPoint x="-2380.5" y="-169.12" as="targetPoint" />
            <mxPoint x="-2410.5" y="-169.12" as="sourcePoint" />
          </mxGeometry>
        </mxCell>
        <mxCell id="77RlWujfG2KdfoTUNOT7-89" value="LAA" style="text;strokeColor=none;align=left;fillColor=none;html=1;verticalAlign=middle;whiteSpace=wrap;rounded=0;fontSize=9;" vertex="1" parent="1">
          <mxGeometry x="-2379.5" y="-174.62" width="30" height="11" as="geometry" />
        </mxCell>
        <mxCell id="77RlWujfG2KdfoTUNOT7-90" style="edgeStyle=orthogonalEdgeStyle;rounded=0;orthogonalLoop=1;jettySize=auto;html=1;dashed=1;dashPattern=1 1;" edge="1" parent="1">
          <mxGeometry relative="1" as="geometry">
            <mxPoint x="-2380.5" y="-159.22" as="targetPoint" />
            <mxPoint x="-2410.5" y="-159.22" as="sourcePoint" />
          </mxGeometry>
        </mxCell>
        <mxCell id="77RlWujfG2KdfoTUNOT7-91" value="LAB" style="text;strokeColor=none;align=left;fillColor=none;html=1;verticalAlign=middle;whiteSpace=wrap;rounded=0;fontSize=9;" vertex="1" parent="1">
          <mxGeometry x="-2379.5" y="-164.62" width="30" height="11" as="geometry" />
        </mxCell>
        <mxCell id="77RlWujfG2KdfoTUNOT7-92" style="edgeStyle=orthogonalEdgeStyle;rounded=0;orthogonalLoop=1;jettySize=auto;html=1;dashed=1;dashPattern=1 1;" edge="1" parent="1">
          <mxGeometry relative="1" as="geometry">
            <mxPoint x="-2380.5" y="-149.04" as="targetPoint" />
            <mxPoint x="-2410.5" y="-149.04" as="sourcePoint" />
          </mxGeometry>
        </mxCell>
        <mxCell id="77RlWujfG2KdfoTUNOT7-93" value="LAC" style="text;strokeColor=none;align=left;fillColor=none;html=1;verticalAlign=middle;whiteSpace=wrap;rounded=0;fontSize=9;" vertex="1" parent="1">
          <mxGeometry x="-2379.5" y="-154.54" width="30" height="11" as="geometry" />
        </mxCell>
        <mxCell id="77RlWujfG2KdfoTUNOT7-94" style="edgeStyle=orthogonalEdgeStyle;rounded=0;orthogonalLoop=1;jettySize=auto;html=1;dashed=1;dashPattern=1 1;" edge="1" parent="1">
          <mxGeometry relative="1" as="geometry">
            <mxPoint x="-2380.5" y="-139.14" as="targetPoint" />
            <mxPoint x="-2410.5" y="-139.14" as="sourcePoint" />
          </mxGeometry>
        </mxCell>
        <mxCell id="77RlWujfG2KdfoTUNOT7-95" value="LAOP" style="text;strokeColor=none;align=left;fillColor=none;html=1;verticalAlign=middle;whiteSpace=wrap;rounded=0;fontSize=9;" vertex="1" parent="1">
          <mxGeometry x="-2379.5" y="-144.54" width="30" height="11" as="geometry" />
        </mxCell>
        <mxCell id="77RlWujfG2KdfoTUNOT7-100" style="edgeStyle=orthogonalEdgeStyle;rounded=0;orthogonalLoop=1;jettySize=auto;html=1;dashed=1;dashPattern=1 1;" edge="1" parent="1">
          <mxGeometry relative="1" as="geometry">
            <mxPoint x="-2380.5" y="-129.04000000000002" as="targetPoint" />
            <mxPoint x="-2410.5" y="-129.04000000000002" as="sourcePoint" />
          </mxGeometry>
        </mxCell>
        <mxCell id="77RlWujfG2KdfoTUNOT7-101" value="LAST" style="text;strokeColor=none;align=left;fillColor=none;html=1;verticalAlign=middle;whiteSpace=wrap;rounded=0;fontSize=9;" vertex="1" parent="1">
          <mxGeometry x="-2379.5" y="-134.54000000000002" width="30" height="11" as="geometry" />
        </mxCell>
        <mxCell id="77RlWujfG2KdfoTUNOT7-102" style="edgeStyle=orthogonalEdgeStyle;rounded=0;orthogonalLoop=1;jettySize=auto;html=1;dashed=1;dashPattern=1 1;" edge="1" parent="1">
          <mxGeometry relative="1" as="geometry">
            <mxPoint x="-2380.5" y="-119.14000000000001" as="targetPoint" />
            <mxPoint x="-2410.5" y="-119.14000000000001" as="sourcePoint" />
          </mxGeometry>
        </mxCell>
        <mxCell id="77RlWujfG2KdfoTUNOT7-103" value="LAPH" style="text;strokeColor=none;align=left;fillColor=none;html=1;verticalAlign=middle;whiteSpace=wrap;rounded=0;fontSize=9;" vertex="1" parent="1">
          <mxGeometry x="-2379.5" y="-124.54000000000002" width="30" height="11" as="geometry" />
        </mxCell>
        <mxCell id="77RlWujfG2KdfoTUNOT7-104" style="edgeStyle=orthogonalEdgeStyle;rounded=0;orthogonalLoop=1;jettySize=auto;html=1;dashed=1;dashPattern=1 1;" edge="1" parent="1">
          <mxGeometry relative="1" as="geometry">
            <mxPoint x="-2380.5" y="-108.96000000000001" as="targetPoint" />
            <mxPoint x="-2410.5" y="-108.96000000000001" as="sourcePoint" />
          </mxGeometry>
        </mxCell>
        <mxCell id="77RlWujfG2KdfoTUNOT7-105" value="LAPL" style="text;strokeColor=none;align=left;fillColor=none;html=1;verticalAlign=middle;whiteSpace=wrap;rounded=0;fontSize=9;" vertex="1" parent="1">
          <mxGeometry x="-2379.5" y="-114.46000000000001" width="30" height="11" as="geometry" />
        </mxCell>
        <mxCell id="77RlWujfG2KdfoTUNOT7-106" style="edgeStyle=orthogonalEdgeStyle;rounded=0;orthogonalLoop=1;jettySize=auto;html=1;dashed=1;dashPattern=1 1;" edge="1" parent="1">
          <mxGeometry relative="1" as="geometry">
            <mxPoint x="-2380.5" y="-99.06" as="targetPoint" />
            <mxPoint x="-2410.5" y="-99.06" as="sourcePoint" />
          </mxGeometry>
        </mxCell>
        <mxCell id="77RlWujfG2KdfoTUNOT7-107" value="LAAH" style="text;strokeColor=none;align=left;fillColor=none;html=1;verticalAlign=middle;whiteSpace=wrap;rounded=0;fontSize=9;" vertex="1" parent="1">
          <mxGeometry x="-2379.5" y="-104.46000000000001" width="30" height="11" as="geometry" />
        </mxCell>
        <mxCell id="77RlWujfG2KdfoTUNOT7-108" style="edgeStyle=orthogonalEdgeStyle;rounded=0;orthogonalLoop=1;jettySize=auto;html=1;dashed=1;dashPattern=1 1;" edge="1" parent="1">
          <mxGeometry relative="1" as="geometry">
            <mxPoint x="-2380.5" y="-88.72" as="targetPoint" />
            <mxPoint x="-2410.5" y="-88.72" as="sourcePoint" />
          </mxGeometry>
        </mxCell>
        <mxCell id="77RlWujfG2KdfoTUNOT7-109" value="LAAL" style="text;strokeColor=none;align=left;fillColor=none;html=1;verticalAlign=middle;whiteSpace=wrap;rounded=0;fontSize=9;" vertex="1" parent="1">
          <mxGeometry x="-2379.5" y="-94.12" width="30" height="11" as="geometry" />
        </mxCell>
        <mxCell id="77RlWujfG2KdfoTUNOT7-110" style="edgeStyle=orthogonalEdgeStyle;rounded=0;orthogonalLoop=1;jettySize=auto;html=1;dashed=1;dashPattern=1 1;" edge="1" parent="1">
          <mxGeometry relative="1" as="geometry">
            <mxPoint x="-2380.5" y="-77.72" as="targetPoint" />
            <mxPoint x="-2410.5" y="-77.72" as="sourcePoint" />
          </mxGeometry>
        </mxCell>
        <mxCell id="77RlWujfG2KdfoTUNOT7-111" value="RD" style="text;strokeColor=none;align=left;fillColor=none;html=1;verticalAlign=middle;whiteSpace=wrap;rounded=0;fontSize=9;" vertex="1" parent="1">
          <mxGeometry x="-2379.5" y="-83.12" width="30" height="11" as="geometry" />
        </mxCell>
        <mxCell id="77RlWujfG2KdfoTUNOT7-112" style="edgeStyle=orthogonalEdgeStyle;rounded=0;orthogonalLoop=1;jettySize=auto;html=1;dashed=1;dashPattern=1 1;" edge="1" parent="1">
          <mxGeometry relative="1" as="geometry">
            <mxPoint x="-2380.5" y="-67.38" as="targetPoint" />
            <mxPoint x="-2410.5" y="-67.38" as="sourcePoint" />
          </mxGeometry>
        </mxCell>
        <mxCell id="77RlWujfG2KdfoTUNOT7-113" value="WR" style="text;strokeColor=none;align=left;fillColor=none;html=1;verticalAlign=middle;whiteSpace=wrap;rounded=0;fontSize=9;" vertex="1" parent="1">
          <mxGeometry x="-2379.5" y="-72.78" width="30" height="11" as="geometry" />
        </mxCell>
        <mxCell id="77RlWujfG2KdfoTUNOT7-115" style="edgeStyle=orthogonalEdgeStyle;rounded=0;orthogonalLoop=1;jettySize=auto;html=1;dashed=1;dashPattern=1 1;" edge="1" parent="1">
          <mxGeometry relative="1" as="geometry">
            <mxPoint x="-2440" y="-203" as="targetPoint" />
            <mxPoint x="-2440" y="-174" as="sourcePoint" />
          </mxGeometry>
        </mxCell>
        <mxCell id="77RlWujfG2KdfoTUNOT7-116" value="" style="endArrow=none;html=1;rounded=0;" edge="1" parent="1">
          <mxGeometry width="50" height="50" relative="1" as="geometry">
            <mxPoint x="-2446" y="-177" as="sourcePoint" />
            <mxPoint x="-2434" y="-188" as="targetPoint" />
          </mxGeometry>
        </mxCell>
        <mxCell id="77RlWujfG2KdfoTUNOT7-117" value="3" style="text;strokeColor=none;align=center;fillColor=none;html=1;verticalAlign=middle;whiteSpace=wrap;rounded=0;fontSize=9;" vertex="1" parent="1">
          <mxGeometry x="-2460" y="-195" width="20" height="20" as="geometry" />
        </mxCell>
        <mxCell id="77RlWujfG2KdfoTUNOT7-118" value="LARX" style="text;strokeColor=none;align=center;fillColor=none;html=1;verticalAlign=middle;whiteSpace=wrap;rounded=0;fontSize=9;" vertex="1" parent="1">
          <mxGeometry x="-2452" y="-215.5" width="30" height="11" as="geometry" />
        </mxCell>
      </root>
    </mxGraphModel>
  </diagram>
</mxfile>
